<svg width="16" height="16" viewBox="0 0 16 16" fill="#F25454" xmlns="http://www.w3.org/2000/svg">
<path d="M7.99984 15.3332C3.93317 15.3332 0.666504 12.0665 0.666504 7.99984C0.666504 3.93317 3.93317 0.666504 7.99984 0.666504C12.0665 0.666504 15.3332 3.93317 15.3332 7.99984C15.3332 12.0665 12.0665 15.3332 7.99984 15.3332ZM7.99984 1.99984C4.6665 1.99984 1.99984 4.6665 1.99984 7.99984C1.99984 11.3332 4.6665 13.9998 7.99984 13.9998C11.3332 13.9998 13.9998 11.3332 13.9998 7.99984C13.9998 4.6665 11.3332 1.99984 7.99984 1.99984Z" />
<path d="M7.99984 8.6665C7.59984 8.6665 7.33317 8.39984 7.33317 7.99984V5.33317C7.33317 4.93317 7.59984 4.6665 7.99984 4.6665C8.39984 4.6665 8.6665 4.93317 8.6665 5.33317V7.99984C8.6665 8.39984 8.39984 8.6665 7.99984 8.6665Z" />
<path d="M7.99984 11.3332C7.79984 11.3332 7.6665 11.2665 7.53317 11.1332C7.39984 10.9998 7.33317 10.8665 7.33317 10.6665C7.33317 10.5998 7.33317 10.4665 7.39984 10.3998C7.4665 10.3332 7.4665 10.2665 7.53317 10.1998C7.73317 9.99984 7.99984 9.93317 8.2665 10.0665C8.33317 10.0665 8.33317 10.0665 8.39984 10.1332C8.39984 10.1332 8.4665 10.1998 8.53317 10.1998C8.59984 10.2665 8.6665 10.3332 8.6665 10.3998C8.6665 10.4665 8.6665 10.5998 8.6665 10.6665C8.6665 10.7332 8.6665 10.8665 8.59984 10.9332C8.53317 10.9998 8.53317 11.0665 8.4665 11.1332C8.33317 11.2665 8.19984 11.3332 7.99984 11.3332Z" />
</svg>
